# xmcd
#
# Track frame offsets:
#	182
#	16885
#	40350
#	57145
#	86930
#
# Disc length: 1388 seconds
#
# Revision: 7
# Processed by: cddbd v1.5.2PL0 Copyright (c) Steve Scherf et al.
# Submitted via: audiograbber 1.83.01
#
DISCID=39056a05
DTITLE=Backstreet Boys - We´ve Got It Goin´ On
DYEAR=1995
DGENRE=Pop
TTITLE0=We´ve Got It Goin´ On (Radio Edit)
TTITLE1=We´ve Got It Goin´ On (Hula´s House Mix)
TTITLE2=We´ve Got It Goin´ On (T and K Harlesden Mix)
TTITLE3=We´ve Got It Goin´ On (Amadin Club Mix)
TTITLE4=We´ve Got It Goin´ On (Hula´s Club Mix)
EXTD=
EXTT0=
EXTT1=
EXTT2=
EXTT3=
EXTT4=
PLAYORDER=
